<?xml version="1.0" encoding="utf-8"?>
<!-- Generator: Adobe Illustrator 16.0.3, SVG Export Plug-In . SVG Version: 6.00 Build 0)  -->
<!DOCTYPE svg PUBLIC "-//W3C//DTD SVG 1.1//EN" "http://www.w3.org/Graphics/SVG/1.1/DTD/svg11.dtd">
<svg version="1.1" id="svg2" xmlns:svg="http://www.w3.org/2000/svg"
	 xmlns="http://www.w3.org/2000/svg" xmlns:xlink="http://www.w3.org/1999/xlink" x="0px" y="0px" width="960px" height="476px"
	 viewBox="0 0 960 476" enable-background="new 0 0 960 476" xml:space="preserve">
<title  id="title3968">Red Car - Top View</title>
<g id="layer1" transform="translate(-52.937117,-486.6931)">
	<g id="g3890">
		<path id="path3855" fill-opacity="0.9961" stroke="#191919" stroke-width="14" d="M610.525,493.693
			c-1.509,0.009-4.721,0.305-6.469,0.938l-3.5,1.5l8.656,35.938l-124.812,0.281c-2.437,0.005-4.888-0.014-7.344-0.031
			c-4.912-0.034-9.864-0.104-14.843-0.219c-7.293-0.167-14.669-0.413-22.063-0.719c-0.396-0.016-0.792-0.045-1.188-0.063
			c-14.933-0.63-30.007-1.492-45.031-2.438c-20.326-1.283-40.52-2.707-60.124-3.875c-14.528-0.865-28.732-1.58-42.375-2
			c-9.369-0.289-18.464-0.457-27.25-0.406c-4.315,0.025-8.568,0.094-12.718,0.219c-4.151,0.125-8.38,0.355-12.656,0.656
			c-2.138,0.15-4.278,0.311-6.438,0.5c-6.469,0.568-13.045,1.322-19.593,2.188c-0.01,0.001-0.021-0.001-0.031,0
			c-4.373,0.579-8.719,1.226-13.063,1.906s-8.673,1.398-12.938,2.156c-4.253,0.757-8.47,1.565-12.594,2.375
			c-0.01,0.002-0.021-0.002-0.031,0c-2.066,0.406-4.07,0.804-6.094,1.219c-6.062,1.242-11.934,2.516-17.5,3.781
			c-0.01,0.002-0.021-0.002-0.031,0c-3.716,0.845-7.287,1.675-10.719,2.5c-6.864,1.648-13.115,3.235-18.531,4.656
			c-8.124,2.133-14.382,3.927-18.094,5c-2.474,0.716-3.813,1.125-3.813,1.125l-13.687,3.75c-0.902,0.249-1.778,0.693-2.625,1.313
			c-0.288,0.211-0.563,0.436-0.844,0.688c-1.1,0.98-2.151,2.271-3.156,3.844c-0.005,0.007,0.004,0.024,0,0.031
			c-0.5,0.785-1.022,1.641-1.5,2.563c-0.004,0.008,0.004,0.023,0,0.031c-0.478,0.924-0.951,1.914-1.406,2.969
			c-0.004,0.009,0.003,0.022,0,0.031c-3.667,8.509-6.62,21.131-8.938,36.219c-0.001,0.01,0.001,0.021,0,0.031
			c-0.036,0.234-0.058,0.483-0.094,0.719c-0.504,3.332-0.992,6.798-1.438,10.344c-0.03,0.243-0.063,0.475-0.094,0.719
			c-0.501,4.043-0.947,8.202-1.375,12.469c-0.001,0.01,0.001,0.021,0,0.031c-0.213,2.128-0.429,4.295-0.625,6.469
			c-0.001,0.01,0.001,0.021,0,0.031c-0.196,2.174-0.384,4.349-0.563,6.563c-0.001,0.01,0.001,0.021,0,0.031
			c-0.358,4.438-0.678,8.945-0.969,13.5c0,0.01,0,0.021,0,0.031c-0.873,13.684-1.459,27.789-1.781,41.563c0,0.011,0,0.021,0,0.031
			c-0.214,9.189-0.313,18.213-0.313,26.907c0,0.968,0.027,1.963,0.031,2.938c-0.004,0.975-0.031,1.97-0.031,2.938
			c0,8.693,0.098,17.717,0.313,26.906c0,0.01,0,0.021,0,0.031c0.322,13.773,0.909,27.879,1.781,41.563c0,0.01,0,0.021,0,0.031
			c0.291,4.554,0.611,9.063,0.969,13.5c0.001,0.01-0.001,0.021,0,0.031c0.179,2.213,0.367,4.388,0.563,6.563
			c0.001,0.01-0.001,0.021,0,0.031c0.196,2.174,0.412,4.34,0.625,6.469c0.001,0.01-0.001,0.021,0,0.031
			c0.428,4.266,0.874,8.425,1.375,12.469c0.03,0.243,0.063,0.476,0.094,0.719c0.445,3.545,0.933,7.012,1.438,10.344
			c0.036,0.235,0.058,0.484,0.094,0.719c0.001,0.01-0.001,0.021,0,0.031c2.317,15.087,5.271,27.709,8.938,36.219
			c0.003,0.009-0.004,0.022,0,0.031c0.455,1.054,0.929,2.045,1.406,2.969c0.004,0.008-0.004,0.022,0,0.03
			c0.478,0.923,1,1.778,1.5,2.563c0.004,0.008-0.005,0.024,0,0.031c1.005,1.573,2.057,2.864,3.156,3.844
			c0.281,0.252,0.556,0.478,0.843,0.688c0.847,0.62,1.723,1.064,2.625,1.313l13.688,3.75c0,0,1.339,0.409,3.813,1.125
			c3.711,1.073,9.97,2.868,18.094,5c5.416,1.422,11.667,3.008,18.531,4.656c3.432,0.825,7.002,1.655,10.719,2.5
			c0.01,0.002,0.021-0.002,0.031,0c5.566,1.266,11.438,2.54,17.5,3.781c2.024,0.415,4.027,0.813,6.094,1.219
			c0.01,0.002,0.021-0.002,0.031,0c4.124,0.81,8.34,1.619,12.594,2.375c4.264,0.759,8.593,1.476,12.938,2.156
			c4.344,0.681,8.689,1.328,13.062,1.906c0.01,0.001,0.021-0.001,0.031,0c6.549,0.866,13.125,1.619,19.594,2.188
			c2.16,0.19,4.299,0.35,6.438,0.5c4.276,0.302,8.505,0.531,12.656,0.656c4.151,0.126,8.403,0.194,12.719,0.219
			c8.786,0.051,17.88-0.117,27.25-0.406c13.642-0.42,27.846-1.135,42.375-2c19.604-1.167,39.798-2.592,60.124-3.875
			c15.023-0.945,30.099-1.807,45.031-2.438c0.396-0.017,0.792-0.046,1.188-0.063c7.394-0.306,14.77-0.551,22.062-0.719
			c4.979-0.114,9.932-0.185,14.844-0.219c2.456-0.017,4.907-0.036,7.344-0.031l124.812,0.281l-8.656,35.938l3.5,1.5
			c1.747,0.633,4.96,0.929,6.469,0.938c0.849,0.006,1.755-0.073,2.688-0.25c0.311-0.058,0.623-0.141,0.938-0.219
			c0.305-0.075,0.633-0.156,0.938-0.25c0.628-0.192,1.264-0.421,1.875-0.688c1.821-0.793,3.534-1.931,4.781-3.313
			c0.01-0.011,0.021-0.021,0.031-0.03c0.624-0.698,1.112-1.452,1.469-2.281l12.156-31.313l109.936,0.25
			c0.747,0.373,1.477,0.744,2.219,1.094c2.979,1.399,5.911,2.597,8.844,3.625c1.463,0.512,2.918,0.975,4.375,1.406
			c5.1,1.507,10.188,2.551,15.344,3.25c2.946,0.398,5.926,0.693,8.938,0.906c1.506,0.105,3.034,0.18,4.563,0.25
			c3.057,0.14,6.139,0.212,9.313,0.25c6.347,0.073,12.979,0,19.999,0c10.41,0,20.322-0.531,29.781-1.563
			c3.783-0.413,7.491-0.898,11.125-1.469c7.268-1.143,14.229-2.619,20.906-4.375c1.669-0.439,3.335-0.899,4.969-1.375
			c4.898-1.43,9.612-3.025,14.187-4.781c1.525-0.586,3.043-1.161,4.531-1.781c2.979-1.242,5.883-2.558,8.719-3.938
			c1.419-0.69,2.836-1.401,4.219-2.125c2.767-1.449,5.467-2.98,8.094-4.563c1.313-0.792,2.597-1.614,3.875-2.438
			c6.395-4.121,12.363-8.626,17.906-13.531c4.429-3.92,8.602-8.08,12.5-12.469c0.005-0.007-0.005-0.025,0-0.031
			c0.971-1.094,1.937-2.192,2.875-3.313c0.005-0.007-0.005-0.025,0-0.031c0.938-1.121,1.876-2.258,2.781-3.406
			c0.005-0.006-0.005-0.025,0-0.031c2.726-3.459,5.313-7.02,7.75-10.719c0.005-0.008-0.005-0.024,0-0.031
			c0.809-1.229,1.629-2.465,2.406-3.719c0.005-0.008-0.005-0.024,0-0.031c2.34-3.778,4.566-7.652,6.625-11.656
			c0.004-0.008-0.004-0.023,0-0.031c0.683-1.329,1.348-2.678,2-4.031c0.004-0.008-0.004-0.023,0-0.031
			c0.651-1.354,1.315-2.717,1.938-4.094c0.004-0.009-0.004-0.022,0-0.031c1.246-2.763,2.438-5.552,3.563-8.406
			c0.004-0.009-0.004-0.022,0-0.031c0.56-1.423,1.095-2.867,1.625-4.313c0.003-0.009-0.003-0.022,0-0.031
			c0.529-1.445,1.062-2.908,1.563-4.375c0.5-1.467,0.998-2.949,1.469-4.438c0.003-0.009-0.003-0.021,0-0.031
			c0.47-1.488,0.934-2.99,1.375-4.5c0.003-0.01-0.003-0.021,0-0.031c0.44-1.51,0.87-3.032,1.281-4.563
			c0.003-0.01-0.003-0.021,0-0.031c1.238-4.609,2.368-9.306,3.344-14.094v-0.031c0.323-1.589,0.61-3.204,0.906-4.813v-0.031
			c2.074-11.318,3.462-23.062,4.156-35.219c0-0.01-0.001-0.021,0-0.031c0.098-1.728,0.179-3.475,0.25-5.219
			c0-0.01-0.001-0.021,0-0.031c0.143-3.496,0.246-7.007,0.281-10.563c0-0.01-0.001-0.021,0-0.031c0.017-1.782,0.01-3.577,0-5.375
			c0-0.635-0.022-1.271-0.031-1.906c0.01-0.635,0.031-1.271,0.031-1.906c0.01-1.797,0.017-3.592,0-5.375
			c-0.001-0.01,0-0.021,0-0.031c-0.034-3.555-0.139-7.065-0.281-10.563c-0.001-0.01,0-0.021,0-0.031
			c-0.071-1.743-0.152-3.491-0.25-5.219c-0.001-0.01,0-0.021,0-0.031c-0.694-12.157-2.082-23.9-4.156-35.219v-0.031
			c-0.296-1.608-0.583-3.223-0.906-4.813v-0.031c-0.976-4.788-2.105-9.484-3.344-14.094c-0.003-0.01,0.003-0.021,0-0.031
			c-0.411-1.53-0.841-3.053-1.281-4.563c-0.003-0.01,0.003-0.021,0-0.031c-0.441-1.509-0.905-3.011-1.375-4.5
			c-0.003-0.009,0.003-0.022,0-0.031c-0.471-1.488-0.969-2.97-1.469-4.438c-0.501-1.467-1.033-2.93-1.563-4.375
			c-0.003-0.009,0.003-0.022,0-0.031c-0.53-1.445-1.065-2.89-1.625-4.313c-0.004-0.009,0.004-0.022,0-0.031
			c-1.125-2.854-2.316-5.644-3.563-8.406c-0.004-0.008,0.004-0.022,0-0.031c-0.622-1.377-1.286-2.741-1.938-4.094
			c-0.004-0.008,0.004-0.023,0-0.031c-0.652-1.353-1.317-2.702-2-4.031c-0.004-0.008,0.004-0.023,0-0.031
			c-2.059-4.004-4.285-7.878-6.625-11.656c-0.005-0.007,0.005-0.023,0-0.031c-0.777-1.254-1.598-2.49-2.406-3.719
			c-0.005-0.007,0.005-0.024,0-0.031c-2.437-3.7-5.024-7.26-7.75-10.719c-0.005-0.006,0.005-0.025,0-0.031
			c-0.905-1.148-1.844-2.285-2.781-3.406c-0.005-0.006,0.005-0.025,0-0.031c-0.938-1.121-1.904-2.219-2.875-3.313
			c-0.005-0.006,0.005-0.025,0-0.031c-3.898-4.389-8.071-8.549-12.5-12.469c-5.543-4.906-11.512-9.411-17.906-13.531
			c-1.278-0.824-2.562-1.646-3.875-2.438c-2.627-1.583-5.327-3.114-8.094-4.563c-1.383-0.725-2.8-1.435-4.219-2.125
			c-2.836-1.381-5.74-2.696-8.719-3.938c-1.488-0.621-3.006-1.196-4.531-1.781c-4.574-1.756-9.288-3.353-14.187-4.781
			c-1.634-0.477-3.3-0.936-4.969-1.375c-6.678-1.756-13.639-3.233-20.906-4.375c-3.634-0.571-7.342-1.057-11.125-1.469
			c-9.458-1.033-19.371-1.564-29.78-1.564c-7.021,0-13.652-0.074-20,0c-3.174,0.037-6.256,0.11-9.313,0.25
			c-1.528,0.07-3.057,0.144-4.563,0.25c-3.012,0.212-5.991,0.507-8.938,0.906c-5.155,0.698-10.243,1.743-15.344,3.25
			c-1.457,0.431-2.912,0.894-4.375,1.406c-2.933,1.028-5.864,2.226-8.844,3.625c-0.742,0.349-1.472,0.72-2.219,1.094l-109.936,0.25
			l-12.156-31.313c-0.356-0.83-0.844-1.583-1.469-2.281c-0.01-0.011-0.021-0.021-0.031-0.031c-1.247-1.381-2.96-2.519-4.781-3.313
			c-0.611-0.266-1.247-0.495-1.875-0.688c-0.305-0.093-0.633-0.174-0.938-0.25c-0.314-0.078-0.627-0.16-0.938-0.219
			C612.28,493.768,611.374,493.689,610.525,493.693L610.525,493.693z"/>
		<path id="path2853" fill="#CA0000" fill-opacity="0.9961" d="M610.525,493.693c-1.509,0.009-4.721,0.306-6.469,0.938l-3.5,1.5
			l8.656,35.844l-124.812,0.281c-77.963,0.166-166.522-11.503-232.935-9.5c-66.413,2.004-152.124,28-152.124,28l-13.688,3.781
			c-19.251,5.296-25.718,97.367-25.718,166.781c0,1.113,0.026,2.253,0.031,3.375c-0.005,1.122-0.031,2.262-0.031,3.375
			c0,69.414,6.467,161.485,25.718,166.781l13.688,3.781c0,0,85.711,25.996,152.124,28c66.412,2.004,154.972-9.665,232.935-9.5
			l124.812,0.281l-8.656,35.844l3.5,1.5c1.748,0.632,4.96,0.929,6.469,0.938c0.849,0.005,1.755-0.074,2.688-0.25
			c0.311-0.059,0.623-0.141,0.938-0.219c0.305-0.075,0.633-0.156,0.938-0.25c0.628-0.192,1.264-0.422,1.875-0.688
			c1.821-0.792,3.534-1.902,4.781-3.281c0.01-0.011,0.021-0.021,0.031-0.031c0.625-0.696,1.112-1.453,1.469-2.281l12.156-31.25
			l109.936,0.25c23.9,11.942,45.512,10.719,73.594,10.719c133.248,0,187.626-86.586,186.998-201.375c0-0.78-0.02-1.565-0.031-2.344
			c0.012-0.778,0.031-1.563,0.031-2.344c0.628-114.789-53.75-201.375-186.998-201.375c-28.082,0-49.693-1.224-73.594,10.719
			l-109.936,0.25l-12.156-31.25c-0.356-0.828-0.844-1.584-1.469-2.281c-0.01-0.01-0.021-0.021-0.031-0.031
			c-1.247-1.378-2.96-2.489-4.781-3.281c-0.611-0.265-1.247-0.495-1.875-0.688c-0.305-0.093-0.633-0.174-0.938-0.25
			c-0.314-0.077-0.627-0.16-0.938-0.219C612.28,493.768,611.374,493.688,610.525,493.693L610.525,493.693z"/>
		<path id="path3643" opacity="0.9" fill="#262626" fill-opacity="0.9961" enable-background="new    " d="M400.34,855.236
			c-33.364,0-65.307,1.801-94.812,5.063c25.66,48.714,97.985,30.266,205.56,31.531c49.687,0.585,89.544,1.88,121.53,2.375
			C585.459,870.871,499.092,855.236,400.34,855.236z"/>
		<path id="path3707" fill="#212121" stroke="#191919" stroke-width="5" d="M989.021,827.5l-5.094,0.594
			c-21.545,2.513-37.688,25.979-39.28,54.531l-0.375,7.125l5.249-4.844c15.89-14.68,28.304-32.507,37.406-52.75L989.021,827.5z"/>
		<path id="path4025" opacity="0.9" fill="#191919" enable-background="new    " d="M400.34,852.75
			c-33.454,0-65.492,1.79-95.093,5.063l-3.656,0.406l1.719,3.25c6.671,12.665,16.562,21.113,29.063,26.438
			c12.5,5.324,27.572,7.613,45.093,8.438c35.042,1.65,79.954-2.631,133.592-2c49.659,0.585,89.508,1.879,121.53,2.375l1.125-4.75
			C585.863,868.294,499.356,852.75,400.34,852.75z M400.34,857.75c91.169,0,171.748,13.479,220.091,33.719
			c-29.952-0.582-65.212-1.605-109.312-2.125c-53.937-0.635-98.976,3.652-133.404,2.031c-17.215-0.811-31.767-3.105-43.406-8.063
			c-10.454-4.452-18.485-11.154-24.5-20.906C338.117,859.424,368.545,857.75,400.34,857.75z"/>
		
			<path id="rect2864" opacity="0.9" fill="#262626" fill-opacity="0.9961" stroke="#191919" stroke-width="5" enable-background="new    " d="
			M260.497,607.381l-77.749,12.469c-27.15,4.354-48.947,48.773-51,104.844c2.052,56.071,23.849,100.49,51,104.844l77.749,12.469
			c13.296,0,24-10.704,24-24V631.381C284.497,618.085,273.793,607.381,260.497,607.381L260.497,607.381z"/>
		
			<path id="path3703" opacity="0.9" fill="#262626" fill-opacity="0.9961" stroke="#191919" stroke-width="5" enable-background="new    " d="
			M691.962,573.162c-2.97,0-5.894,0.332-8.781,0.969c-0.011-0.01-0.021-0.021-0.031-0.031l-63.843,12.313
			c-17.729,6.605-32,14.272-32,32v212.563c0,17.729,14.271,25.396,32,32l63.843,12.313c0.011-0.01,0.021-0.021,0.031-0.031
			c2.888,0.637,5.812,0.969,8.781,0.969c45.396,0,82.197-57.362,82.312-151.531C774.159,630.525,737.357,573.162,691.962,573.162
			L691.962,573.162z"/>
		<path id="path4157" opacity="0.9" fill="#262626" fill-opacity="0.9961" enable-background="new    " d="M400.34,594.15
			c-33.364,0-65.307-1.8-94.812-5.063c25.66-48.713,97.985-30.265,205.56-31.531c49.687-0.584,89.544-1.879,121.53-2.375
			C585.459,578.515,499.092,594.15,400.34,594.15z"/>
		<path id="path4161" fill="#212121" stroke="#191919" stroke-width="5" d="M989.021,621.886l-5.094-0.594
			c-21.545-2.513-37.688-25.979-39.28-54.531l-0.375-7.125l5.249,4.844c15.89,14.68,28.304,32.507,37.406,52.75L989.021,621.886z"/>
		<path id="path4183" opacity="0.9" fill="#191919" enable-background="new    " d="M400.34,596.636
			c-33.454,0-65.492-1.79-95.093-5.063l-3.656-0.406l1.719-3.25c6.671-12.665,16.562-21.114,29.063-26.438
			c12.5-5.324,27.572-7.613,45.093-8.438c35.042-1.65,79.954,2.631,133.592,2c49.659-0.584,89.508-1.879,121.53-2.375l1.125,4.75
			C585.863,581.093,499.356,596.636,400.34,596.636z M400.34,591.636c91.169,0,171.748-13.479,220.091-33.719
			c-29.952,0.582-65.212,1.606-109.312,2.125c-53.937,0.635-98.976-3.652-133.404-2.031c-17.215,0.811-31.767,3.105-43.406,8.063
			c-10.454,4.452-18.485,11.154-24.5,20.906C338.117,589.963,368.545,591.636,400.34,591.636z"/>
	</g>
</g>
</svg>
